<svg aria-hidden="true" style="position: absolute; width: 0; height: 0; overflow: hidden;" version="1.1"
    xmlns="http://www.w3.org/2000/svg" xmlns:xlink="http://www.w3.org/1999/xlink" overflow= "hidden"> 
    <defs>
        <symbol id="icon-arrow-left" viewBox="0 0 32 32">
            <path stroke-linejoin="round" stroke-linecap="round" stroke-miterlimit="4" stroke-width="2.6667"
                d="M25.333 16h-18.667"></path>
            <path stroke-linejoin="round" stroke-linecap="round" stroke-miterlimit="4" stroke-width="2.6667"
                d="M16 25.334l-9.333-9.333 9.333-9.333"></path>
        </symbol>
        <symbol id="icon-arrow-right" viewBox="0 0 32 32">
            <path stroke-linejoin="round" stroke-linecap="round" stroke-miterlimit="4" stroke-width="2.6667"
                d="M6.667 16h18.667"></path>
            <path stroke-linejoin="round" stroke-linecap="round" stroke-miterlimit="4" stroke-width="2.6667"
                d="M16 25.334l9.333-9.333-9.333-9.333"></path>
        </symbol>
        <symbol id="icon-close" viewBox="0 0 32 32">
            <path stroke-linejoin="miter" stroke-linecap="butt" stroke-miterlimit="4" stroke-width="2.1333"
                d="M8.533 8.533l14.933 14.933"></path>
            <path stroke-linejoin="miter" stroke-linecap="butt" stroke-miterlimit="4" stroke-width="2.1333"
                d="M8.533 23.467l14.933-14.933"></path>
        </symbol>
        <symbol id="icon-film" viewBox="0 0 32 32">
            <path fill="none" stroke="#818181" style="stroke: var(--color1, #818181)" stroke-linejoin="round"
                stroke-linecap="round" stroke-miterlimit="4" stroke-width="2.6667"
                d="M26.427 2.667h-20.853c-1.605 0-2.907 1.301-2.907 2.907v20.853c0 1.605 1.301 2.907 2.907 2.907h20.853c1.605 0 2.907-1.301 2.907-2.907v-20.853c0-1.605-1.301-2.907-2.907-2.907z">
            </path>
            <path fill="none" stroke="#818181" style="stroke: var(--color1, #818181)" stroke-linejoin="round"
                stroke-linecap="round" stroke-miterlimit="4" stroke-width="2.6667" d="M9.333 2.667v26.667"></path>
            <path fill="none" stroke="#818181" style="stroke: var(--color1, #818181)" stroke-linejoin="round"
                stroke-linecap="round" stroke-miterlimit="4" stroke-width="2.6667" d="M22.667 2.667v26.667"></path>
            <path fill="none" stroke="#818181" style="stroke: var(--color1, #818181)" stroke-linejoin="round"
                stroke-linecap="round" stroke-miterlimit="4" stroke-width="2.6667" d="M2.667 16h26.667"></path>
            <path fill="none" stroke="#818181" style="stroke: var(--color1, #818181)" stroke-linejoin="round"
                stroke-linecap="round" stroke-miterlimit="4" stroke-width="2.6667" d="M2.667 9.333h6.667"></path>
            <path fill="none" stroke="#818181" style="stroke: var(--color1, #818181)" stroke-linejoin="round"
                stroke-linecap="round" stroke-miterlimit="4" stroke-width="2.6667" d="M2.667 22.667h6.667"></path>
            <path fill="none" stroke="#818181" style="stroke: var(--color1, #818181)" stroke-linejoin="round"
                stroke-linecap="round" stroke-miterlimit="4" stroke-width="2.6667" d="M22.667 22.667h6.667"></path>
            <path fill="none" stroke="#818181" style="stroke: var(--color1, #818181)" stroke-linejoin="round"
                stroke-linecap="round" stroke-miterlimit="4" stroke-width="2.6667" d="M22.667 9.333h6.667"></path>
        </symbol>
        <symbol id="icon-like" viewBox="0 0 34 32">
            <path fill="#ff6b08" style="fill: var(--color2, #ff6b08)"
                d="M17.231 31.705l-2.412-2.412c-8.96-7.926-14.818-13.268-14.818-19.815 0-5.342 4.135-9.477 9.477-9.477 2.929 0 5.858 1.378 7.754 3.618 1.895-2.24 4.825-3.618 7.754-3.618 5.342 0 9.477 4.135 9.477 9.477 0 6.548-5.858 11.889-14.818 19.815l-2.412 2.412z">
            </path>
        </symbol>
        <symbol id="icon-search" viewBox="0 0 32 32">
            <path fill="none" stroke="#fff" style="stroke: var(--color3, #fff)" stroke-linejoin="round"
                stroke-linecap="round" stroke-miterlimit="4" stroke-width="2.6667"
                d="M14.667 25.333c5.891 0 10.667-4.776 10.667-10.667s-4.776-10.667-10.667-10.667c-5.891 0-10.667 4.776-10.667 10.667s4.776 10.667 10.667 10.667z">
            </path>
            <path fill="none" stroke="#fff" style="stroke: var(--color3, #fff)" stroke-linejoin="round"
                stroke-linecap="round" stroke-miterlimit="4" stroke-width="2.6667" d="M28 28.001l-5.8-5.8"></path>
        </symbol>
        <symbol id="icon-github" viewBox="0 0 32 32">
            <path
                d="M16 0c-8.789 0-16 7.211-16 16 0 7.499 5.262 14.312 12.25 16v-5.293c-0.276 0.070-0.593 0.109-0.919 0.109-0.398 0-0.781-0.059-1.143-0.169l0.028 0.007c-0.946-0.278-1.714-0.909-2.285-1.869-0.363-0.613-1.008-1.28-1.68-1.23l-0.165-1.867c1.454-0.125 2.71 0.886 3.456 2.139 0.333 0.558 0.715 0.885 1.205 1.029 0.472 0.141 0.981 0.074 1.573-0.136 0.149-1.186 0.693-1.629 1.104-2.256-4.168-0.621-5.829-2.832-6.488-4.576-0.874-2.318-0.405-5.213 1.139-7.043 0.030-0.035 0.085-0.128 0.064-0.192-0.709-2.141 0.154-3.91 0.186-4.098 0.818 0.24 0.95-0.243 3.552 1.336l0.448 0.27c0.189 0.112 0.128 0.048 0.317 0.032 1.003-0.282 2.157-0.452 3.349-0.469l0.010-0c1.136 0.014 2.272 0.176 3.403 0.483l0.146 0.016c-0.013-0.003 0.040-0.010 0.128-0.062 3.248-1.968 3.131-1.325 4.003-1.608 0.032 0.189 0.882 1.987 0.182 4.099-0.096 0.291 2.816 2.957 1.202 7.235-0.659 1.744-2.32 3.957-6.486 4.578 0.534 0.816 1.176 1.248 1.173 2.928v6.606c6.986-1.688 12.25-8.501 12.25-16 0-8.789-7.211-16-16-16z" />
        </symbol>
        <symbol id="icon-arrow" viewBox="0 0 24 24">
            <path
                d="M0 12c0 6.627 5.373 12 12 12s12-5.373 12-12-5.373-12-12-12-12 5.373-12 12zm17-1h-4v8h-2v-8h-4l5-6 5 6z">
            </path>
        </symbol>
        <symbol id="moon" viewBox="0 0 32 32">
        <path fill="currentColor" d="M17.701 32a15.97 15.97 0 0012.429-5.925c.442-.544-.04-1.339-.723-1.209-7.763 1.478-14.891-4.474-14.891-12.31 0-4.514 2.416-8.665 6.344-10.9.605-.345.453-1.262-.235-1.389-.879-.17-1.89-.267-2.923-.268-8.832 0-16 7.157-16 16 0 8.832 7.157 16 16 16z"/>
        </symbol
        ><symbol id="sun" viewBox="0 0 32 32">
        <path fill="currentColor" d="M16 10c-3.306 0-6 2.694-6 6s2.694 6 6 6 6-2.694 6-6-2.694-6-6-6zm15.4 5.031l-5.919-2.956L27.575 5.8c.281-.85-.525-1.656-1.369-1.369l-6.275 2.094L16.969.6c-.4-.8-1.537-.8-1.938 0l-2.956 5.919-6.281-2.094c-.85-.281-1.656.525-1.369 1.369l2.094 6.275L.6 15.032c-.8.4-.8 1.538 0 1.938l5.919 2.956-2.094 6.281c-.281.85.525 1.656 1.369 1.369l6.275-2.094 2.956 5.919c.4.8 1.538.8 1.938 0l2.956-5.919 6.275 2.094c.85.281 1.656-.525 1.369-1.369l-2.094-6.275 5.919-2.956c.813-.406.813-1.544.012-1.944zm-9.744 6.625c-3.119 3.119-8.194 3.119-11.313 0s-3.119-8.194 0-11.313c3.119-3.119 8.194-3.119 11.313 0s3.119 8.194 0 11.313z"/>
        </symbol>
        <symbol id="icon-clapperboard" viewBox="0 0 32 32">
<path fill="#f3786c" style="fill: var(--color1, #f3786c)" d="M17.964 5.004c1.049 0.053 1.964 0.427 2.738 1.147 0.044 0.116-0.027 0.187-0.089 0.258-0.089 0.098-0.187 0.196-0.284 0.293-6.036 6.044-12.080 12.080-18.124 18.116-0.196 0.196-0.347 0.436-0.587 0.596-0.764-0.791-1.173-1.733-1.227-2.827 0.107-0.196 0.302-0.32 0.462-0.471 5.547-5.556 11.093-11.102 16.649-16.649 0.142-0.16 0.267-0.347 0.462-0.462z"></path>
<path fill="#f3746b" style="fill: var(--color2, #f3746b)" d="M4.791 26.924c-0.809-0.009-1.547-0.258-2.222-0.711-0.053-0.098 0.018-0.16 0.071-0.231 0.071-0.089 0.151-0.16 0.231-0.24 6.080-6.080 12.16-12.16 18.24-18.231 0.133-0.133 0.222-0.338 0.462-0.302 0.4 0.489 0.587 1.067 0.667 1.68 0.027 0.16 0.196 0.293 0.124 0.48-0.124 0.196-0.329 0.329-0.489 0.489-5.6 5.609-11.209 11.209-16.809 16.818-0.089 0.080-0.178 0.169-0.276 0.249z"></path>
<path fill="#f47b6d" style="fill: var(--color3, #f47b6d)" d="M17.964 5.004c-0.071 0.16-0.178 0.284-0.302 0.409-5.627 5.627-11.244 11.244-16.862 16.871-0.124 0.124-0.249 0.24-0.409 0.302-0.044-0.987-0.027-1.964-0.009-2.942 0.142-0.169 0.302-0.32 0.462-0.471 4.64-4.649 9.289-9.298 13.938-13.947 0.080-0.080 0.16-0.151 0.24-0.222 0.987-0.027 1.964-0.036 2.942 0z"></path>
<path fill="#f26d6c" style="fill: var(--color4, #f26d6c)" d="M11.422 26.924c-1.253 0-2.498 0-3.751 0-0.089-0.124 0-0.204 0.062-0.293 0.080-0.098 0.169-0.178 0.258-0.267 4.578-4.578 9.164-9.156 13.742-13.742 0.107-0.107 0.204-0.213 0.32-0.302 0.142-0.098 0.276-0.124 0.338 0.089 0.036 1.164 0.027 2.329 0 3.484-0.089 0.284-0.382 0.356-0.569 0.551-1.013 1.031-2.036 2.053-3.058 3.076-2.249 2.249-4.507 4.507-6.756 6.756-0.204 0.204-0.418 0.418-0.587 0.649z"></path>
<path fill="#f2706b" style="fill: var(--color5, #f2706b)" d="M22.311 12.284c-0.16 0-0.231 0.124-0.329 0.213-4.702 4.702-9.404 9.396-14.098 14.098-0.089 0.089-0.213 0.169-0.213 0.329-0.96 0.018-1.911 0.036-2.871-0.009 0-0.16 0.124-0.231 0.222-0.32 5.644-5.653 11.307-11.307 16.96-16.969 0.089-0.089 0.169-0.213 0.329-0.213 0.098 0.089 0.107 0.213 0.107 0.329 0 0.693 0 1.396 0 2.089-0.009 0.16 0.018 0.329-0.107 0.453z"></path>
<path fill="#f47e6d" style="fill: var(--color6, #f47e6d)" d="M15.022 4.996c0 0.16-0.124 0.231-0.213 0.329-4.702 4.702-9.404 9.404-14.107 14.098-0.089 0.089-0.169 0.213-0.329 0.213 0-1.004 0-2.009 0-3.013 0.133-0.196 0.32-0.329 0.489-0.498 3.547-3.547 7.093-7.102 10.64-10.64 0.16-0.16 0.302-0.356 0.498-0.489 1.013 0 2.018 0 3.022 0z"></path>
<path fill="#f26a6c" style="fill: var(--color7, #f26a6c)" d="M11.422 26.924c-0.027-0.169 0.080-0.267 0.187-0.373 3.44-3.44 6.889-6.88 10.329-10.329 0.107-0.107 0.204-0.213 0.373-0.187 0.16 0.187 0.089 0.409 0.098 0.622 0.009 0.276 0 0.551 0 0.827-0.009 0.48 0.018 0.96-0.018 1.44-0.018 0.098-0.080 0.178-0.151 0.249-2.587 2.507-5.111 5.067-7.644 7.618-0.053 0.053-0.116 0.089-0.169 0.142-0.996-0.009-2-0.009-3.004-0.009z"></path>
<path fill="#f4826d" style="fill: var(--color8, #f4826d)" d="M12.009 4.996c-0.062 0.16-0.178 0.293-0.302 0.409-3.636 3.644-7.28 7.28-10.916 10.924-0.124 0.124-0.249 0.24-0.409 0.302 0-0.933 0-1.867 0-2.8 0.684-0.72 1.396-1.404 2.098-2.107 2.16-2.169 4.329-4.329 6.489-6.498 0.080-0.080 0.16-0.151 0.24-0.222 0.933-0.009 1.867-0.009 2.8-0.009z"></path>
<path fill="#f3786c" style="fill: var(--color1, #f3786c)" d="M31.724 8.604c0 0.836 0 1.671 0 2.498-0.133 0.204-0.338 0.347-0.516 0.524-2.756 2.764-5.52 5.52-8.276 8.276-0.107 0.107-0.196 0.213-0.32 0.302-0.133 0.089-0.249 0.098-0.311-0.089-0.080-0.756 0.107-1.502 0.044-2.249-0.018-0.124 0.062-0.196 0.142-0.276 2.889-2.844 5.733-5.733 8.613-8.587 0.178-0.178 0.329-0.409 0.622-0.4z"></path>
<path fill="#f47b6d" style="fill: var(--color3, #f47b6d)" d="M31.724 8.604c-0.231 0.133-0.427 0.32-0.622 0.507-2.782 2.782-5.564 5.564-8.347 8.347-0.107 0.107-0.196 0.267-0.373 0.267-0.062-0.080-0.027-0.169-0.036-0.258 0-0.56 0-1.111 0-1.671-0.009-0.178 0.107-0.293 0.222-0.4 2.747-2.747 5.484-5.493 8.231-8.231 0.116-0.116 0.222-0.284 0.436-0.187 0.533 0.427 0.542 1.022 0.489 1.627z"></path>
<path fill="#f3736b" style="fill: var(--color9, #f3736b)" d="M22.382 17.511c0 0.071 0 0.151 0 0.222 0 0.836 0 1.671 0 2.498 0.16 0.213 0.062 0.453 0.089 0.676 0.018 0.142-0.018 0.293 0.027 0.436 0.178-0.036 0.249-0.178 0.347-0.276 2.791-2.791 5.582-5.582 8.382-8.373 0.133-0.133 0.231-0.382 0.498-0.276 0 0.684 0 1.378 0 2.062-0.898 0.924-1.813 1.822-2.72 2.738-1.902 1.911-3.813 3.813-5.716 5.724-0.053 0.053-0.107 0.107-0.169 0.142-0.196-0.053-0.391-0.098-0.578-0.178-0.16-0.062-0.24-0.018-0.302 0.124-0.080-0.071-0.080-0.169-0.071-0.267 0.053-0.604 0.009-1.209 0.036-1.813-0.018-0.489 0-0.969-0.009-1.458 0-0.16 0.027-0.311 0.116-0.453 0-0.516 0-1.031 0-1.547 0.027-0.018 0.044-0.018 0.071 0.018z"></path>
<path fill="#f3766b" style="fill: var(--color10, #f3766b)" d="M21.573 7.209c-0.098 0.089-0.204 0.169-0.302 0.267-6.142 6.133-12.276 12.276-18.409 18.409-0.107 0.107-0.187 0.222-0.284 0.329-0.204-0.080-0.373-0.204-0.516-0.373-0.062-0.222 0.107-0.338 0.231-0.471 0.418-0.444 0.871-0.862 1.298-1.298 5.671-5.68 11.351-11.36 17.040-17.040 0.16-0.16 0.293-0.409 0.596-0.356 0.142 0.16 0.302 0.302 0.347 0.533z"></path>
<path fill="#f2706b" style="fill: var(--color5, #f2706b)" d="M23.12 23.093c0-0.16 0.133-0.231 0.222-0.32 2.684-2.684 5.369-5.378 8.062-8.062 0.089-0.089 0.169-0.213 0.329-0.213 0 0.738 0 1.476 0 2.204-0.107 0.169-0.276 0.276-0.409 0.418-2.027 2.036-4.062 4.062-6.098 6.098-0.142 0.142-0.267 0.284-0.338 0.471-0.604-0.178-1.191-0.373-1.769-0.596z"></path>
<path fill="#f3766b" style="fill: var(--color10, #f3766b)" d="M21.227 6.684c-0.187 0.071-0.329 0.204-0.471 0.347-5.716 5.716-11.44 11.44-17.156 17.156-0.418 0.418-0.827 0.836-1.244 1.244-0.124 0.124-0.231 0.258-0.293 0.418-0.151-0.142-0.373-0.213-0.444-0.436 0.080-0.213 0.24-0.364 0.4-0.524 6.124-6.124 12.258-12.249 18.382-18.382 0.116-0.116 0.249-0.204 0.311-0.356 0.151 0.196 0.391 0.302 0.516 0.533z"></path>
<path fill="#f47e6d" style="fill: var(--color6, #f47e6d)" d="M31.236 6.978c-0.196 0.009-0.293 0.169-0.409 0.293-2.702 2.702-5.413 5.404-8.116 8.107-0.107 0.107-0.222 0.196-0.329 0.293-0.080-0.658-0.018-1.324-0.036-1.991-0.009-0.107 0.036-0.178 0.116-0.258 2.196-2.151 4.356-4.338 6.524-6.516 0.027-0.027 0.062-0.044 0.089-0.062 0.498-0.196 0.987-0.418 1.547-0.231 0.231 0.071 0.453 0.16 0.613 0.364z"></path>
<path fill="#f5846e" style="fill: var(--color11, #f5846e)" d="M9.209 4.996c0 0.16-0.124 0.231-0.213 0.329-2.764 2.764-5.529 5.529-8.293 8.284-0.089 0.089-0.169 0.213-0.329 0.213 0-0.667 0-1.324 0-1.991 1.413-1.44 2.844-2.853 4.276-4.284 0.853-0.853 1.698-1.716 2.569-2.56 0.667 0.009 1.333 0.009 1.991 0.009z"></path>
<path fill="#f26c6c" style="fill: var(--color12, #f26c6c)" d="M24.88 23.68c-0.116-0.151-0.009-0.24 0.089-0.338 2.142-2.142 4.284-4.276 6.418-6.418 0.098-0.098 0.213-0.169 0.338-0.222 0 0.764 0 1.52 0 2.284-1.342 1.369-2.711 2.72-4.071 4.080-0.391 0.391-0.773 0.782-1.164 1.164-0.533-0.187-1.067-0.364-1.609-0.551z"></path>
<path fill="#f1656b" style="fill: var(--color13, #f1656b)" d="M22.311 20.969c-0.018 0.693 0.062 1.387-0.071 2.071-0.32 1.822-1.396 3.013-3.102 3.662-0.907 0.347-1.849 0.24-2.791 0.231-0.107-0.24 0.107-0.329 0.222-0.444 0.987-1.004 1.991-1.991 2.978-2.987 0.782-0.782 1.556-1.564 2.338-2.329 0.116-0.124 0.204-0.32 0.427-0.204z"></path>
<path fill="#f2676b" style="fill: var(--color14, #f2676b)" d="M22.311 20.969c-0.16 0-0.231 0.124-0.329 0.213-1.804 1.804-3.618 3.609-5.422 5.422-0.089 0.089-0.213 0.169-0.213 0.329-0.64 0-1.271 0-1.911 0 0.062-0.16 0.178-0.293 0.302-0.409 2.391-2.382 4.773-4.773 7.164-7.164 0.124-0.124 0.249-0.231 0.409-0.302 0 0.631 0 1.271 0 1.911z"></path>
<path fill="#f2696b" style="fill: var(--color15, #f2696b)" d="M26.498 24.222c0-0.169 0.133-0.258 0.231-0.356 1.556-1.556 3.111-3.12 4.676-4.676 0.089-0.089 0.169-0.213 0.329-0.213 0 1.058 0 2.107 0 3.164-0.951 0.96-1.893 1.929-2.871 2.862-0.791-0.258-1.582-0.516-2.364-0.782z"></path>
<path fill="#f3766b" style="fill: var(--color10, #f3766b)" d="M31.724 12.427c-0.187 0.009-0.267 0.16-0.373 0.267-2.844 2.844-5.689 5.689-8.533 8.533-0.071 0.071-0.133 0.142-0.213 0.204-0.044 0.036-0.107 0.089-0.151 0.080-0.089-0.018-0.071-0.116-0.071-0.187 0-0.364 0-0.738 0-1.102 0.187-0.009 0.267-0.16 0.373-0.267 2.836-2.836 5.671-5.671 8.507-8.507 0.142-0.142 0.276-0.284 0.462-0.356 0 0.453 0 0.898 0 1.333z"></path>
<path fill="#f5876d" style="fill: var(--color16, #f5876d)" d="M7.227 4.996c0 0.16-0.124 0.231-0.213 0.329-2.098 2.098-4.204 4.204-6.302 6.302-0.089 0.089-0.169 0.213-0.329 0.213 0-0.64 0-1.28 0-1.911 0.080-0.151 0.196-0.284 0.311-0.4 1.404-1.404 2.809-2.809 4.213-4.213 0.124-0.124 0.249-0.231 0.4-0.311 0.64-0.009 1.28-0.009 1.92-0.009z"></path>
<path fill="#f4826d" style="fill: var(--color8, #f4826d)" d="M29.076 6.844c-0.071 0.16-0.178 0.284-0.302 0.409-2.018 2.009-4.027 4.027-6.044 6.036-0.098 0.098-0.178 0.24-0.347 0.24-0.080-0.56-0.009-1.129-0.036-1.698-0.018-0.16 0.080-0.276 0.187-0.382 1.227-1.218 2.427-2.453 3.68-3.653 0.942-0.338 1.902-0.658 2.862-0.951z"></path>
<path fill="#f5886d" style="fill: var(--color17, #f5886d)" d="M5.307 4.996c-0.187 0.196-0.364 0.4-0.551 0.587-1.351 1.36-2.711 2.72-4.071 4.080-0.098 0.098-0.204 0.178-0.302 0.267-0.169-2.8 2.133-5.093 4.924-4.933z"></path>
<path fill="#f1656b" style="fill: var(--color13, #f1656b)" d="M28.862 25.004c0-0.124 0.089-0.196 0.169-0.267 0.809-0.809 1.618-1.618 2.427-2.427 0.080-0.080 0.151-0.169 0.276-0.16 0 0.596 0.027 1.191 0.009 1.796-0.036 0.889-0.898 1.582-1.769 1.431-0.391-0.080-0.764-0.204-1.111-0.373z"></path>
<path fill="#f5846e" style="fill: var(--color11, #f5846e)" d="M26.213 7.804c0 0.107-0.071 0.178-0.142 0.249-1.191 1.191-2.373 2.373-3.564 3.564-0.036 0.036-0.080 0.053-0.116 0.080-0.080-0.4-0.018-0.8-0.036-1.2-0.009-0.107 0.027-0.196 0.107-0.258 0.596-0.516 1.147-1.067 1.662-1.662 0.044-0.053 0.133-0.062 0.178-0.124 0.613-0.258 1.262-0.462 1.911-0.649z"></path>
<path fill="#f5866e" style="fill: var(--color18, #f5866e)" d="M24.293 8.444c-0.551 0.729-1.182 1.378-1.911 1.92-0.098-0.213 0.027-0.453-0.071-0.667 0-0.098 0-0.196 0-0.293-0.027-0.178-0.044-0.347-0.071-0.524 0.071 0.196 0.196 0.151 0.347 0.107 0.569-0.187 1.138-0.356 1.707-0.542z"></path>
<path fill="#f3786c" style="fill: var(--color1, #f3786c)" d="M22.311 9.707c0.142 0.204 0.044 0.444 0.071 0.667 0 0.444 0 0.88 0 1.324 0 0.613 0 1.227 0 1.84 0 0.711 0 1.422 0 2.133 0 0.613 0 1.227 0 1.84-0.027 0-0.044 0-0.071 0 0-0.489 0-0.978 0-1.476 0-1.253 0-2.498 0-3.751 0-0.862 0-1.716 0-2.578z"></path>
</symbol>
        

    </defs>
</svg>