<?xml version="1.0" encoding="utf-8"?>
<!-- Generator: Adobe Illustrator 25.0.0, SVG Export Plug-In . SVG Version: 6.00 Build 0)  -->
<svg version="1.1" id="Layer_1" xmlns="http://www.w3.org/2000/svg" xmlns:xlink="http://www.w3.org/1999/xlink" x="0px" y="0px"
	 viewBox="0 0 360 360" style="enable-background:new 0 0 360 360;" xml:space="preserve">
<style type="text/css">
	.st0{fill:#F3786C;}
	.st1{fill:#F3746B;}
	.st2{fill:#F47B6D;}
	.st3{fill:#F26D6C;}
	.st4{fill:#F2706B;}
	.st5{fill:#F47E6D;}
	.st6{fill:#F26A6C;}
	.st7{fill:#F4826D;}
	.st8{fill:#F3736B;}
	.st9{fill:#F3766B;}
	.st10{fill:#F5846E;}
	.st11{fill:#F26C6C;}
	.st12{fill:#F1656B;}
	.st13{fill:#F2676B;}
	.st14{fill:#F2696B;}
	.st15{fill:#F5876D;}
	.st16{fill:#F5886D;}
	.st17{fill:#F5866E;}
</style>
<g>
	<path class="st0" d="M202.1,56.3c11.8,0.6,22.1,4.8,30.8,12.9c0.5,1.3-0.3,2.1-1,2.9c-1,1.1-2.1,2.2-3.2,3.3
		c-67.9,68-135.9,135.9-203.9,203.8c-2.2,2.2-3.9,4.9-6.6,6.7C9.6,277,5,266.4,4.4,254.1c1.2-2.2,3.4-3.6,5.2-5.3
		c62.4-62.5,124.8-124.9,187.3-187.3C198.5,59.7,199.9,57.6,202.1,56.3z"/>
	<path class="st1" d="M53.9,302.9c-9.1-0.1-17.4-2.9-25-8c-0.6-1.1,0.2-1.8,0.8-2.6c0.8-1,1.7-1.8,2.6-2.7
		c68.4-68.4,136.8-136.8,205.2-205.1c1.5-1.5,2.5-3.8,5.2-3.4c4.5,5.5,6.6,12,7.5,18.9c0.3,1.8,2.2,3.3,1.4,5.4
		c-1.4,2.2-3.7,3.7-5.5,5.5C183.1,174,120,237,57,300.1C56,301,55,302,53.9,302.9z"/>
	<path class="st2" d="M202.1,56.3c-0.8,1.8-2,3.2-3.4,4.6C135.4,124.2,72.2,187.4,9,250.7c-1.4,1.4-2.8,2.7-4.6,3.4
		C3.9,243,4.1,232,4.3,221c1.6-1.9,3.4-3.6,5.2-5.3C61.7,163.4,114,111.1,166.3,58.8c0.9-0.9,1.8-1.7,2.7-2.5
		C180.1,56,191.1,55.9,202.1,56.3z"/>
	<path class="st3" d="M128.5,302.9c-14.1,0-28.1,0-42.2,0c-1-1.4,0-2.3,0.7-3.3c0.9-1.1,1.9-2,2.9-3
		C141.4,245.1,193,193.6,244.5,142c1.2-1.2,2.3-2.4,3.6-3.4c1.6-1.1,3.1-1.4,3.8,1c0.4,13.1,0.3,26.2,0,39.2c-1,3.2-4.3,4-6.4,6.2
		c-11.4,11.6-22.9,23.1-34.4,34.6c-25.3,25.3-50.7,50.7-76,76C132.8,297.9,130.4,300.3,128.5,302.9z"/>
	<path class="st4" d="M251,138.2c-1.8,0-2.6,1.4-3.7,2.4c-52.9,52.9-105.8,105.7-158.6,158.6c-1,1-2.4,1.9-2.4,3.7
		c-10.8,0.2-21.5,0.4-32.3-0.1c0-1.8,1.4-2.6,2.5-3.6C120,235.6,183.7,172,247.3,108.3c1-1,1.9-2.4,3.7-2.4c1.1,1,1.2,2.4,1.2,3.7
		c0,7.8,0,15.7,0,23.5C252.1,134.9,252.4,136.8,251,138.2z"/>
	<path class="st5" d="M169,56.2c0,1.8-1.4,2.6-2.4,3.7C113.7,112.8,60.8,165.7,7.9,218.5c-1,1-1.9,2.4-3.7,2.4c0-11.3,0-22.6,0-33.9
		c1.5-2.2,3.6-3.7,5.5-5.6c39.9-39.9,79.8-79.9,119.7-119.7c1.8-1.8,3.4-4,5.6-5.5C146.4,56.2,157.7,56.2,169,56.2z"/>
	<path class="st6" d="M128.5,302.9c-0.3-1.9,0.9-3,2.1-4.2c38.7-38.7,77.5-77.4,116.2-116.2c1.2-1.2,2.3-2.4,4.2-2.1
		c1.8,2.1,1,4.6,1.1,7c0.1,3.1,0,6.2,0,9.3c-0.1,5.4,0.2,10.8-0.2,16.2c-0.2,1.1-0.9,2-1.7,2.8c-29.1,28.2-57.5,57-86,85.7
		c-0.6,0.6-1.3,1-1.9,1.6C151.1,302.9,139.8,302.9,128.5,302.9z"/>
	<path class="st7" d="M135.1,56.2c-0.7,1.8-2,3.3-3.4,4.6C90.8,101.8,49.8,142.7,8.9,183.7c-1.4,1.4-2.8,2.7-4.6,3.4
		c0-10.5,0-21,0-31.5c7.7-8.1,15.7-15.8,23.6-23.7c24.3-24.4,48.7-48.7,73-73.1c0.9-0.9,1.8-1.7,2.7-2.5
		C114.1,56.2,124.6,56.2,135.1,56.2z"/>
	<path class="st0" d="M356.9,96.8c0,9.4,0,18.8,0,28.1c-1.5,2.3-3.8,3.9-5.8,5.9c-31,31.1-62.1,62.1-93.1,93.1
		c-1.2,1.2-2.2,2.4-3.6,3.4c-1.5,1-2.8,1.1-3.5-1c-0.9-8.5,1.2-16.9,0.5-25.3c-0.2-1.4,0.7-2.2,1.6-3.1c32.5-32,64.5-64.5,96.9-96.6
		C351.9,99.3,353.6,96.7,356.9,96.8z"/>
	<path class="st2" d="M356.9,96.8c-2.6,1.5-4.8,3.6-7,5.7c-31.3,31.3-62.6,62.6-93.9,93.9c-1.2,1.2-2.2,3-4.2,3
		c-0.7-0.9-0.3-1.9-0.4-2.9c0-6.3,0-12.5,0-18.8c-0.1-2,1.2-3.3,2.5-4.5c30.9-30.9,61.7-61.8,92.6-92.6c1.3-1.3,2.5-3.2,4.9-2.1
		C357.4,83.3,357.5,90,356.9,96.8z"/>
	<path class="st8" d="M251.8,197c0,0.8,0,1.7,0,2.5c0,9.4,0,18.8,0,28.1c1.8,2.4,0.7,5.1,1,7.6c0.2,1.6-0.2,3.3,0.3,4.9
		c2-0.4,2.8-2,3.9-3.1c31.4-31.4,62.8-62.8,94.3-94.2c1.5-1.5,2.6-4.3,5.6-3.1c0,7.7,0,15.5,0,23.2c-10.1,10.4-20.4,20.5-30.6,30.8
		c-21.4,21.5-42.9,42.9-64.3,64.4c-0.6,0.6-1.2,1.2-1.9,1.6c-2.2-0.6-4.4-1.1-6.5-2c-1.8-0.7-2.7-0.2-3.4,1.4
		c-0.9-0.8-0.9-1.9-0.8-3c0.6-6.8,0.1-13.6,0.4-20.4c-0.2-5.5,0-10.9-0.1-16.4c0-1.8,0.3-3.5,1.3-5.1c0-5.8,0-11.6,0-17.4
		C251.3,196.6,251.5,196.6,251.8,197z"/>
	<path class="st9" d="M242.7,81.1c-1.1,1-2.3,1.9-3.4,3c-69.1,69-138.1,138.1-207.1,207.1c-1.2,1.2-2.1,2.5-3.2,3.7
		c-2.3-0.9-4.2-2.3-5.8-4.2c-0.7-2.5,1.2-3.8,2.6-5.3c4.7-5,9.8-9.7,14.6-14.6c63.8-63.9,127.7-127.8,191.7-191.7
		c1.8-1.8,3.3-4.6,6.7-4C240.4,76.9,242.2,78.5,242.7,81.1z"/>
	<path class="st4" d="M260.1,259.8c0-1.8,1.5-2.6,2.5-3.6c30.2-30.2,60.4-60.5,90.7-90.7c1-1,1.9-2.4,3.7-2.4c0,8.3,0,16.6,0,24.8
		c-1.2,1.9-3.1,3.1-4.6,4.7c-22.8,22.9-45.7,45.7-68.6,68.6c-1.6,1.6-3,3.2-3.8,5.3C273.2,264.5,266.6,262.3,260.1,259.8z"/>
	<path class="st9" d="M238.8,75.2c-2.1,0.8-3.7,2.3-5.3,3.9c-64.3,64.3-128.7,128.7-193,193c-4.7,4.7-9.3,9.4-14,14
		c-1.4,1.4-2.6,2.9-3.3,4.7c-1.7-1.6-4.2-2.4-5-4.9c0.9-2.4,2.7-4.1,4.5-5.9c68.9-68.9,137.9-137.8,206.8-206.8
		c1.3-1.3,2.8-2.3,3.5-4C234.7,71.4,237.4,72.6,238.8,75.2z"/>
	<path class="st5" d="M351.4,78.5c-2.2,0.1-3.3,1.9-4.6,3.3c-30.4,30.4-60.9,60.8-91.3,91.2c-1.2,1.2-2.5,2.2-3.7,3.3
		c-0.9-7.4-0.2-14.9-0.4-22.4c-0.1-1.2,0.4-2,1.3-2.9c24.7-24.2,49-48.8,73.4-73.3c0.3-0.3,0.7-0.5,1-0.7c5.6-2.2,11.1-4.7,17.4-2.6
		C347.1,75.2,349.6,76.2,351.4,78.5z"/>
	<path class="st10" d="M103.6,56.2c0,1.8-1.4,2.6-2.4,3.7C70.1,91,39,122.1,7.9,153.1c-1,1-1.9,2.4-3.7,2.4c0-7.5,0-14.9,0-22.4
		c15.9-16.2,32-32.1,48.1-48.2c9.6-9.6,19.1-19.3,28.9-28.8C88.7,56.2,96.2,56.2,103.6,56.2z"/>
	<path class="st11" d="M279.9,266.4c-1.3-1.7-0.1-2.7,1-3.8c24.1-24.1,48.2-48.1,72.2-72.2c1.1-1.1,2.4-1.9,3.8-2.5
		c0,8.6,0,17.1,0,25.7c-15.1,15.4-30.5,30.6-45.8,45.9c-4.4,4.4-8.7,8.8-13.1,13.1C292,270.5,286,268.5,279.9,266.4z"/>
	<path class="st12" d="M251,235.9c-0.2,7.8,0.7,15.6-0.8,23.3c-3.6,20.5-15.7,33.9-34.9,41.2c-10.2,3.9-20.8,2.7-31.4,2.6
		c-1.2-2.7,1.2-3.7,2.5-5c11.1-11.3,22.4-22.4,33.5-33.6c8.8-8.8,17.5-17.6,26.3-26.2C247.5,236.8,248.5,234.6,251,235.9z"/>
	<path class="st13" d="M251,235.9c-1.8,0-2.6,1.4-3.7,2.4c-20.3,20.3-40.7,40.6-61,61c-1,1-2.4,1.9-2.4,3.7c-7.2,0-14.3,0-21.5,0
		c0.7-1.8,2-3.3,3.4-4.6c26.9-26.8,53.7-53.7,80.6-80.6c1.4-1.4,2.8-2.6,4.6-3.4C251,221.5,251,228.7,251,235.9z"/>
	<path class="st14" d="M298.1,272.5c0-1.9,1.5-2.9,2.6-4c17.5-17.5,35-35.1,52.6-52.6c1-1,1.9-2.4,3.7-2.4c0,11.9,0,23.7,0,35.6
		c-10.7,10.8-21.3,21.7-32.3,32.2C315.8,278.4,306.9,275.5,298.1,272.5z"/>
	<path class="st9" d="M356.9,139.8c-2.1,0.1-3,1.8-4.2,3c-32,32-64,64-96,96c-0.8,0.8-1.5,1.6-2.4,2.3c-0.5,0.4-1.2,1-1.7,0.9
		c-1-0.2-0.8-1.3-0.8-2.1c0-4.1,0-8.3,0-12.4c2.1-0.1,3-1.8,4.2-3c31.9-31.9,63.8-63.8,95.7-95.7c1.6-1.6,3.1-3.2,5.2-4
		C356.9,129.9,356.9,134.9,356.9,139.8z"/>
	<path class="st15" d="M81.3,56.2c0,1.8-1.4,2.6-2.4,3.7c-23.6,23.6-47.3,47.3-70.9,70.9c-1,1-1.9,2.4-3.7,2.4c0-7.2,0-14.4,0-21.5
		c0.9-1.7,2.2-3.2,3.5-4.5c15.8-15.8,31.6-31.6,47.4-47.4c1.4-1.4,2.8-2.6,4.5-3.5C66.9,56.2,74.1,56.2,81.3,56.2z"/>
	<path class="st7" d="M327.1,77c-0.8,1.8-2,3.2-3.4,4.6c-22.7,22.6-45.3,45.3-68,67.9c-1.1,1.1-2,2.7-3.9,2.7
		c-0.9-6.3-0.1-12.7-0.4-19.1c-0.2-1.8,0.9-3.1,2.1-4.3c13.8-13.7,27.3-27.6,41.4-41.1C305.5,83.9,316.3,80.3,327.1,77z"/>
	<path class="st16" d="M59.7,56.2c-2.1,2.2-4.1,4.5-6.2,6.6C38.3,78.1,23,93.4,7.7,108.7c-1.1,1.1-2.3,2-3.4,3
		C2.4,80.2,28.3,54.4,59.7,56.2z"/>
	<path class="st12" d="M324.7,281.3c0-1.4,1-2.2,1.9-3c9.1-9.1,18.2-18.2,27.3-27.3c0.9-0.9,1.7-1.9,3.1-1.8
		c0,6.7,0.3,13.4,0.1,20.2c-0.4,10-10.1,17.8-19.9,16.1C332.8,284.6,328.6,283.2,324.7,281.3z"/>
	<path class="st10" d="M294.9,87.8c0,1.2-0.8,2-1.6,2.8c-13.4,13.4-26.7,26.7-40.1,40.1c-0.4,0.4-0.9,0.6-1.3,0.9
		c-0.9-4.5-0.2-9-0.4-13.5c-0.1-1.2,0.3-2.2,1.2-2.9c6.7-5.8,12.9-12,18.7-18.7c0.5-0.6,1.5-0.7,2-1.4
		C280.3,92.2,287.6,89.9,294.9,87.8z"/>
	<path class="st17" d="M273.3,95c-6.2,8.2-13.3,15.5-21.5,21.6c-1.1-2.4,0.3-5.1-0.8-7.5c0-1.1,0-2.2,0-3.3c-0.3-2-0.5-3.9-0.8-5.9
		c0.8,2.2,2.2,1.7,3.9,1.2C260.5,99,266.9,97.1,273.3,95z"/>
	<path class="st0" d="M251,109.2c1.6,2.3,0.5,5,0.8,7.5c0,5,0,9.9,0,14.9c0,6.9,0,13.8,0,20.7c0,8,0,16,0,24c0,6.9,0,13.8,0,20.7
		c-0.3,0-0.5,0-0.8,0c0-5.5,0-11,0-16.6c0-14.1,0-28.1,0-42.2C251,128.5,251,118.9,251,109.2z"/>
</g>
</svg>
